<svg width="161" height="174" viewBox="0 0 161 174" fill="none" xmlns="http://www.w3.org/2000/svg">
<g clip-path="url(#clip0)">
<path d="M70.517 55.9515C71.965 55.9515 73.139 54.8106 73.139 53.4027V52.0538C73.139 50.6459 71.965 49.505 70.517 49.505C69.0689 49.505 67.8949 50.6459 67.8949 52.0538V53.4027C67.8949 54.8103 69.0689 55.9515 70.517 55.9515Z" fill="#FF5050"/>
<path d="M92.5602 55.9515C94.0083 55.9515 95.1823 54.8106 95.1823 53.4027V52.0538C95.1823 50.6459 94.0083 49.505 92.5602 49.505C91.1122 49.505 89.9382 50.6459 89.9382 52.0538V53.4027C89.9382 54.8103 91.1122 55.9515 92.5602 55.9515Z" fill="#FF5050"/>
<path d="M139.925 67.079C139.925 67.0787 139.924 67.0787 139.923 67.0783C124.798 63.1171 109.173 71.8616 105.09 86.5725C105.031 86.7859 104.976 86.9996 104.922 87.2134L98.8165 85.5087V78.4417C102.075 75.9136 105.032 72.7972 107.488 69.2554C112.017 62.7232 114.512 55.1301 114.512 47.8741V47.1016C114.888 47.1574 115.265 47.2114 115.641 47.2692C117.546 47.5696 119.385 46.8821 120.441 45.4782C121.459 44.1263 121.572 42.37 120.746 40.7805C120.707 40.7058 120.664 40.6331 120.618 40.5624L114.359 30.9937C113.589 21.5573 109.832 13.6236 103.446 8.01927C97.5824 2.87233 89.8525 0.0271611 81.6752 0.00133301C81.6675 0.000993164 81.6601 0.000993164 81.6525 0.00065332C81.6388 0.00065332 81.6252 -0.000366211 81.6115 -0.000366211C81.5962 -0.000366211 81.5825 -0.000366211 81.5671 -0.000366211C66.8378 -0.000366211 50.4047 9.70591 48.67 31.006L42.4189 40.562C42.3752 40.6293 42.3343 40.6983 42.2969 40.7693C41.4624 42.3564 41.5697 44.1127 42.5847 45.468C43.4779 46.6612 44.9344 47.3385 46.5136 47.3385C46.8013 47.3385 47.0936 47.3161 47.3869 47.2699C47.7662 47.2118 48.1459 47.157 48.5252 47.101V47.8738C48.5252 55.1298 51.02 62.7229 55.5496 69.255C58.0059 72.7969 60.9626 75.9133 64.2209 78.4413V85.5084L50.0673 89.4581C48.6755 89.8465 47.8711 91.2582 48.2704 92.6111C48.6703 93.964 50.1226 94.7467 51.514 94.3579L65.5302 90.4467C68.6949 95.3248 74.6145 98.2719 81.5213 98.2716H81.5297C88.4321 98.2692 94.3475 95.3214 97.5072 90.4474L104.149 92.3019C103.83 98.1441 105.426 103.983 108.79 108.953C108.865 109.209 108.905 109.481 108.918 109.763H89.8858H73.1503H52.9292C49.4251 109.763 46.574 112.531 46.574 115.934V129.53H25.3286C25.3258 125.998 25.3171 124.411 25.3098 123.092C25.2986 121.024 25.2916 119.775 25.3195 112.716C25.3562 103.365 28.7642 100.706 35.4614 98.8381L39.7493 97.6435C41.1415 97.2554 41.9466 95.8444 41.5477 94.4912C41.1488 93.1382 39.6965 92.3556 38.3047 92.743L34.0161 93.9379C24.0263 96.7239 20.1181 101.984 20.0754 112.697C20.0471 119.779 20.0541 121.036 20.0656 123.12C20.0744 124.715 20.0852 126.701 20.0852 132.079V142.744C20.0852 149.477 25.2835 155.047 31.9782 155.86V171.451C31.9782 172.859 33.1522 174 34.6003 174H77.7463C79.1944 174 80.3683 172.859 80.3683 171.451C80.3683 170.043 79.1944 168.902 77.7463 168.902H52.9303C52.3279 168.902 51.8192 168.411 51.8192 167.829V155.967H72.8839C75.9356 155.967 78.8682 154.96 81.2413 153.153C83.5505 154.913 86.455 155.967 89.6096 155.967H111.219V167.829C111.219 168.411 110.715 168.902 110.118 168.902H89.8375C88.3894 168.902 87.2154 170.043 87.2154 171.451C87.2154 172.859 88.3894 174 89.8375 174H129.369C130.817 174 131.991 172.859 131.991 171.451V155.717C138.236 154.525 142.963 149.162 142.963 142.744V132.079C142.963 126.9 142.973 124.836 142.98 123.296C142.986 122.102 142.99 121.216 142.987 119.452C151.037 116.338 157.539 109.703 159.965 100.961C164.036 86.2499 155.047 71.0501 139.925 67.079V67.079ZM108.927 29.4202H98.0379C96.6157 20.4936 93.2731 12.6955 87.893 5.78174C92.4008 6.77544 96.5448 8.82979 99.9321 11.8027C104.861 16.129 107.941 22.1812 108.927 29.4202ZM92.7148 29.4202H70.4254C71.9805 20.6258 75.6601 13.0316 81.607 6.34622C87.5126 12.997 91.1681 20.5908 92.7148 29.4202ZM63.1745 11.7932C66.6014 8.80227 70.7869 6.74485 75.3322 5.761C69.9031 12.7074 66.5318 20.5116 65.1012 29.4202H54.1134C55.107 22.1819 58.2097 16.1266 63.1745 11.7932V11.7932ZM52.5877 34.5179H67.3856C67.3873 34.5179 67.3894 34.5182 67.3915 34.5182C67.394 34.5182 67.3964 34.5179 67.3989 34.5179H95.7389C95.7414 34.5179 95.7438 34.5182 95.7463 34.5182C95.748 34.5182 95.7501 34.5179 95.7519 34.5179H110.451L115.393 42.0726C104.051 40.389 92.6599 39.5354 81.5196 39.5354C70.3723 39.5354 58.9859 40.3884 47.6463 42.0726L52.5877 34.5179ZM53.7697 47.8741V46.3832C63.0728 45.2213 72.3798 44.6334 81.5189 44.6334C90.6528 44.6334 99.9619 45.2216 109.268 46.3839V47.8744C109.268 60.3634 100.468 73.5143 88.7985 78.4651C83.4236 80.7441 79.6135 80.7438 74.2397 78.4651C62.5697 73.514 53.7697 60.363 53.7697 47.8741ZM81.5287 93.1743C81.5266 93.1743 81.5252 93.1743 81.5227 93.1743C77.1967 93.1743 71.8393 91.492 69.4654 86.8365V81.8503C70.3468 82.3207 71.239 82.7536 72.1424 83.137C75.4724 84.549 78.4955 85.2552 81.5189 85.2552C84.542 85.2552 87.5657 84.549 90.8958 83.137C91.7992 82.754 92.6914 82.321 93.5724 81.8503V86.8372C91.2045 91.49 85.8509 93.1729 81.5287 93.1743V93.1743ZM111.219 129.53H92.5085V114.86H106.646C106.482 115.044 106.313 115.226 106.133 115.405C105.134 116.399 105.138 117.988 106.142 118.977C107.139 119.959 109.046 120.744 111.219 121.162V129.53ZM87.2647 114.86V129.731C86.2404 129.905 85.2541 130.187 84.3217 130.571C84.1308 130.086 83.7886 129.651 83.3065 129.346C82.237 128.67 80.8005 128.67 79.7306 129.347C79.1804 129.696 78.8112 130.211 78.6437 130.781C77.7284 130.363 76.7663 130.045 75.7731 129.834V114.86H87.2647ZM51.8189 115.934C51.8189 115.352 52.3279 114.861 52.9299 114.861H70.5289V129.531H51.8185V115.934H51.8189ZM46.6775 168.902H37.2223V155.967H46.5747V167.829C46.5747 168.196 46.6143 168.553 46.6775 168.902ZM49.3933 150.869C49.3283 150.864 49.2632 150.859 49.1972 150.859C49.1311 150.859 49.0661 150.864 49.001 150.869H33.6696C29.0709 150.869 25.3297 147.224 25.3297 142.744V134.628H72.8839C74.6704 134.628 76.3866 135.189 77.8057 136.203C76.6691 138.133 76.0154 140.365 76.0154 142.744C76.0154 145.125 76.6691 147.359 77.8064 149.291C76.3859 150.306 74.6673 150.869 72.8839 150.869H49.3933ZM116.361 168.902C116.424 168.553 116.463 168.196 116.463 167.829V155.967H126.746V168.902H116.361ZM137.718 142.744C137.718 147.224 133.973 150.869 129.368 150.869H114.037C113.972 150.864 113.907 150.859 113.841 150.859C113.775 150.859 113.71 150.864 113.645 150.869H89.6096C85.0056 150.869 81.2595 147.223 81.2595 142.744C81.2595 140.861 81.9241 139.128 83.0345 137.75C83.2061 137.597 83.355 137.428 83.4753 137.245C85.0021 135.637 87.1864 134.628 89.6096 134.628H137.718V142.744ZM137.736 123.272C137.729 124.534 137.722 126.149 137.719 129.53H116.463V121.386C118.599 121.143 120.441 120.474 121.902 119.405C122.962 119.821 124.043 120.173 125.131 120.456C129.385 121.571 133.679 121.68 137.743 120.934C137.743 121.814 137.74 122.474 137.736 123.272V123.272ZM154.901 99.6354C151.571 111.633 138.828 118.765 126.492 115.533C125.138 115.181 123.799 114.698 122.511 114.098C121.426 113.593 120.128 113.869 119.36 114.768C118.212 116.111 116.123 116.473 114.176 116.394C114.066 116.381 113.955 116.371 113.841 116.371C113.828 116.371 113.814 116.373 113.8 116.373C113.228 116.334 112.673 116.26 112.167 116.162C112.76 115.239 113.223 114.291 113.556 113.341C113.635 113.167 113.695 112.982 113.732 112.79C114.33 110.764 114.318 108.741 113.625 106.932C113.552 106.743 113.456 106.562 113.34 106.394C109.561 100.966 108.401 94.2247 110.154 87.8992C113.484 75.9017 126.234 68.7728 138.558 71.9996C150.89 75.2393 158.222 87.6368 154.901 99.6354V99.6354Z" fill="#FF5050"/>
<path d="M132.527 83.4985C128.334 80.4427 122.989 80.529 119.72 83.8357C115.729 87.8458 115.729 94.3712 119.72 98.3817C119.733 98.3939 119.745 98.4061 119.758 98.4184L129.908 108.215C129.976 108.281 130.048 108.343 130.123 108.401L130.183 108.447C130.71 108.856 131.367 109.364 132.397 109.414C132.441 109.417 132.484 109.418 132.528 109.418C132.574 109.418 132.62 109.416 132.666 109.414C133.69 109.362 134.347 108.855 134.933 108.402C135.008 108.343 135.079 108.281 135.148 108.215L145.298 98.4187C145.311 98.4055 145.325 98.3922 145.338 98.3789C149.314 94.3698 149.314 87.8475 145.341 83.8425C142.062 80.5253 136.72 80.4372 132.527 83.4985ZM141.58 94.8225L132.527 103.56L123.473 94.8204C121.478 92.7973 121.484 89.3955 123.495 87.3741C125.21 85.6392 128.077 86.3984 129.893 87.9862C130.03 88.1072 130.141 88.2108 130.234 88.2961C130.659 88.691 131.373 89.3513 132.527 89.3513C133.682 89.3513 134.395 88.691 134.821 88.2961C134.913 88.2108 135.025 88.1072 135.155 87.992C136.977 86.3947 139.841 85.6351 141.563 87.3772C143.563 89.3938 143.569 92.7974 141.58 94.8225Z" fill="#FF5050"/>
<path d="M76.774 69.1548C78.0116 70.0778 79.5978 70.5403 81.2011 70.5403C82.767 70.5403 84.349 70.0989 85.637 69.2139C86.8194 68.4014 87.1004 66.8112 86.2645 65.6615C85.4286 64.5122 83.7921 64.2386 82.6097 65.0515C81.7986 65.6085 80.5449 65.5423 79.9656 65.1107C78.8168 64.2539 77.1708 64.4646 76.2891 65.5813C75.4081 66.6984 75.6249 68.2984 76.774 69.1548Z" fill="#FF5050"/>
</g>
<defs>
<clipPath id="clip0">
<rect width="161" height="174" fill="white"/>
</clipPath>
</defs>
</svg>
