<svg width="154" height="164" viewBox="0 0 154 164" fill="none" xmlns="http://www.w3.org/2000/svg">
<g clip-path="url(#clip0)">
<path d="M131.39 0H22.6101C20.8884 0 19.4922 1.48644 19.4922 3.32038V19.0481C19.4922 20.8816 20.888 22.3685 22.6101 22.3685H31.4574C31.8804 36.1034 34.9215 49.1098 40.3272 60.1666C46.1656 72.1084 54.1995 80.7111 63.5599 85.0453C63.9649 85.2325 64.3866 85.3213 64.8016 85.3213C66.0058 85.3213 67.1521 84.5746 67.6626 83.3242C68.3492 81.6426 67.6255 79.6864 66.0464 78.9552C49.9949 71.5235 38.5958 48.5371 37.6999 22.3685H131.389C133.111 22.3685 134.507 20.8821 134.507 19.0481V3.32038C134.507 1.48644 133.112 0 131.39 0ZM128.272 15.7277H25.728V6.6403H128.272V15.7277H128.272Z" fill="#FF5050"/>
<path d="M131.39 141.631H122.543C122.12 127.897 119.078 114.89 113.673 103.833C108.981 94.2366 102.871 86.7965 95.7945 81.9948C101.713 77.9616 107.011 72.036 111.328 64.5723C116.846 55.0325 120.513 43.3917 121.933 30.9072C122.14 29.0869 120.922 27.4321 119.212 27.212C117.504 26.9882 115.949 28.2889 115.742 30.1092C113.119 53.1807 102.211 72.3539 87.954 78.9547C86.8156 79.4818 86.0795 80.6777 86.0795 82C86.0795 83.3223 86.8156 84.5177 87.954 85.0453C104.005 92.4775 115.412 115.463 116.307 141.632H50.8401C51.9158 131.385 63.2332 123.295 77.0009 123.295C86.9326 123.295 96.1968 127.707 100.601 134.535C101.411 135.789 103.022 136.107 104.2 135.246C105.378 134.384 105.677 132.668 104.867 131.413C99.4436 123.006 88.7656 117.783 77.0009 117.783C60.3338 117.783 46.6624 128.343 45.6402 141.632H37.6924C38.3512 122.052 44.8127 104.064 55.2602 93.0248C56.4825 91.7336 56.49 89.6311 55.277 88.3295C54.0649 87.0283 52.0902 87.0189 50.8679 88.3116C39.2776 100.559 32.1339 120.305 31.4587 141.633H22.6101C20.8884 141.633 19.4922 143.119 19.4922 144.953V160.681C19.4922 162.514 20.888 164.001 22.6101 164.001H131.39C133.112 164.001 134.508 162.515 134.508 160.681V144.953C134.507 143.118 133.112 141.631 131.39 141.631ZM128.272 157.36H25.728V148.272H34.5188H119.481H128.272V157.36Z" fill="#FF5050"/>
<path d="M76.9999 114.132C77.8208 114.132 78.6249 113.779 79.2034 113.158C79.7858 112.542 80.117 111.686 80.117 110.812C80.117 109.938 79.7858 109.081 79.2034 108.465C78.6245 107.845 77.8208 107.492 76.9999 107.492C76.1786 107.492 75.3745 107.845 74.7965 108.465C74.2136 109.082 73.8824 109.938 73.8824 110.812C73.8824 111.686 74.2136 112.543 74.7965 113.158C75.3745 113.779 76.1786 114.132 76.9999 114.132Z" fill="#FF5050"/>
<path d="M76.9999 93.0831C76.1786 93.0831 75.3745 93.441 74.7965 94.0565C74.2136 94.6772 73.8824 95.5331 73.8824 96.403C73.8824 97.2777 74.2136 98.1335 74.7965 98.7543C75.375 99.3703 76.1786 99.7277 76.9999 99.7277C77.8168 99.7277 78.6205 99.3698 79.2034 98.7543C79.7858 98.1335 80.117 97.2777 80.117 96.403C80.117 95.5326 79.7858 94.6772 79.2034 94.0565C78.6249 93.441 77.8208 93.0831 76.9999 93.0831Z" fill="#FF5050"/>
<path d="M79.2034 79.6535C78.6245 79.0327 77.8208 78.6801 76.9999 78.6801C76.1786 78.6801 75.3745 79.0327 74.7965 79.6535C74.2136 80.2695 73.8824 81.1253 73.8824 82C73.8824 82.8742 74.2136 83.7305 74.7965 84.3465C75.375 84.9667 76.1786 85.3194 76.9999 85.3194C77.8208 85.3194 78.6249 84.9667 79.2034 84.3465C79.7858 83.73 80.117 82.8742 80.117 82C80.1174 81.1253 79.7862 80.269 79.2034 79.6535Z" fill="#FF5050"/>
<path d="M95.3313 61.9446C99.9192 55.9142 103.524 47.7597 105.755 38.3619C105.99 37.3692 105.782 36.3159 105.192 35.5085C104.602 34.7011 103.693 34.228 102.732 34.228H51.2675C50.3058 34.228 49.3984 34.7006 48.8076 35.5085C48.2167 36.3164 48.0092 37.3697 48.245 38.3619C50.4767 47.7597 54.0808 55.9147 58.6683 61.9446C63.9662 68.908 70.3054 72.5886 77 72.5886C83.6946 72.5886 90.0338 68.908 95.3313 61.9446ZM76.9996 65.9483C67.1384 65.9483 59.3536 53.9303 55.4046 40.8683H98.595C94.646 53.9307 86.8611 65.9483 76.9996 65.9483Z" fill="#FF5050"/>
</g>
<defs>
<clipPath id="clip0">
<rect width="154" height="164" fill="white"/>
</clipPath>
</defs>
</svg>
