<svg width="152" height="172" viewBox="0 0 152 172" fill="none" xmlns="http://www.w3.org/2000/svg">
<path d="M144.723 93.13H139.01V33.3369C139.01 23.7521 132.119 15.9539 123.648 15.9539H120.559C118.645 9.81279 110.846 5.69102 109.847 5.1849C109.216 4.86542 108.495 4.86542 107.864 5.1849C106.865 5.69102 99.0652 9.81279 97.1513 15.9539H92.0409C89.9494 7.19693 78.4213 1.11252 76.9909 0.387926C76.3606 0.0684452 75.6391 0.0684452 75.0088 0.387926C73.5783 1.11252 62.0506 7.19693 59.9588 15.9539H54.8484C52.9345 9.81279 45.1346 5.69102 44.1356 5.1849C43.505 4.86542 42.7838 4.86542 42.1532 5.1849C41.1542 5.69102 33.3543 9.81279 31.4404 15.9539H28.3512C19.881 15.9539 12.9895 23.7521 12.9895 33.3369V93.13H7.2766C3.26412 93.13 0 96.8239 0 101.364C0 105.904 3.26412 109.598 7.2766 109.598H51.2754C52.4022 115.854 57.3021 120.577 63.1589 120.577H67.4353V133.985C62.0205 137.16 58.3651 143.093 57.5831 149.895H49.2457C44.7349 149.895 39.7661 153.548 37.934 158.213L34.7333 166.363H29.8415C28.5019 166.363 27.4159 167.591 27.4159 169.107C27.4159 170.624 28.5019 171.852 29.8415 171.852H36.296C36.317 171.852 115.683 171.852 115.683 171.852C115.704 171.852 122.159 171.852 122.159 171.852C123.498 171.852 124.584 170.624 124.584 169.107C124.584 167.591 123.498 166.363 122.159 166.363H117.267L114.066 158.213C112.234 153.548 107.265 149.895 102.754 149.895H94.4169C93.6349 143.093 89.9795 137.16 84.5647 133.985V120.577H88.8411C94.6979 120.577 99.5978 115.854 100.725 109.598H144.723C148.736 109.598 152 105.904 152 101.364C152 96.8239 148.736 93.13 144.723 93.13ZM108.855 10.7372C111.049 12.0144 113.606 13.9928 115.031 15.9539H102.681C104.104 13.9924 106.663 12.0137 108.855 10.7372ZM76.0016 5.93328C79.1522 7.71732 84.9357 11.7136 86.8661 15.9539H65.1372C67.0718 11.7224 72.8539 7.72061 76.0016 5.93328ZM43.1444 10.7372C45.3377 12.0144 47.8955 13.9928 49.3198 15.9539H36.9696C38.3936 13.9924 40.952 12.0137 43.1444 10.7372ZM28.3516 21.4433H123.648C129.444 21.4433 134.159 26.7786 134.159 33.3369V41.7539C129.773 42.4196 127.215 44.843 124.924 47.0244C122.482 49.3508 120.552 51.1887 116.388 51.1887C112.224 51.1887 110.294 49.3512 107.851 47.0244C105.167 44.4682 102.125 41.5709 96.1908 41.5709C90.2573 41.5709 87.2157 44.4682 84.5317 47.0248C82.0894 49.3508 80.1603 51.1887 75.9968 51.1887C71.8329 51.1887 69.9038 49.3512 67.4612 47.0244C64.7775 44.4682 61.7356 41.5709 55.8018 41.5709C49.8683 41.5709 46.8267 44.4682 44.1431 47.0244C42.7084 48.3913 41.3534 49.6824 39.5986 50.4359C38.6565 50.8403 38.034 51.8617 38.034 53.002V68.1105C38.034 69.6241 36.946 70.8552 35.6084 70.8552C34.2711 70.8552 33.1829 69.6241 33.1829 68.1105C33.1829 63.1075 33.1829 53.6772 33.1839 53.0463C33.2007 51.9071 32.5869 50.852 31.6192 50.4363C29.8641 49.6824 28.5087 48.3913 27.0741 47.0248C24.7841 44.843 22.2266 42.42 17.8409 41.7539V33.3369C17.8409 26.7786 22.5562 21.4433 28.3516 21.4433ZM17.8409 47.3121C20.4385 47.8881 22.0397 49.4043 23.95 51.2238C25.2019 52.4165 26.5845 53.7332 28.3328 54.7696L28.3322 68.1102C28.3322 72.6503 31.5963 76.3442 35.6087 76.3442C39.6212 76.3442 42.8853 72.6503 42.8853 68.1102V54.7696C44.6333 53.7332 46.0159 52.4161 47.2678 51.2238C49.7101 48.8978 51.6392 47.0599 55.8024 47.0599C59.9663 47.0599 61.8954 48.8974 64.3377 51.2242C67.0217 53.7804 70.0636 56.6777 75.9971 56.6777C81.9306 56.6777 84.9722 53.7804 87.6561 51.2238C90.0985 48.8978 92.0276 47.0599 96.1911 47.0599C100.356 47.0599 102.285 48.8974 104.728 51.2242C107.412 53.7804 110.454 56.6777 116.388 56.6777C122.322 56.6777 125.364 53.7804 128.048 51.2242C129.959 49.4043 131.561 47.8877 134.159 47.3117V93.1292H17.8409V47.3121ZM81.2165 138.273C85.6222 140.324 88.6975 144.725 89.5096 149.894H76.0201C74.6805 149.894 73.5945 151.123 73.5945 152.639C73.5945 154.155 74.6805 155.384 76.0201 155.384H102.755C105.361 155.384 108.575 157.747 109.633 160.442L111.959 166.362H40.0417L42.3669 160.442C43.4254 157.747 46.6397 155.384 49.2457 155.384H66.3179C67.6575 155.384 68.7435 154.155 68.7435 152.639C68.7435 151.123 67.6575 149.894 66.3179 149.894H62.4908C63.3028 144.725 66.3781 140.324 70.7838 138.273C71.6932 137.85 72.2863 136.847 72.2863 135.734V120.576H79.714V135.734C79.7136 136.847 80.3071 137.85 81.2165 138.273ZM88.8411 115.087H63.1589C59.997 115.087 57.3008 112.792 56.2995 109.598H95.7005C94.6992 112.792 92.0033 115.087 88.8411 115.087ZM144.723 104.109H7.2766C5.939 104.109 4.85106 102.878 4.85106 101.364C4.85106 99.8504 5.939 98.6193 7.2766 98.6193H144.723C146.061 98.6193 147.149 99.8504 147.149 101.364C147.149 102.878 146.061 104.109 144.723 104.109Z" fill="#FF5050"/>
<path d="M109.371 84.4107C110.71 84.4107 111.796 83.1818 111.796 81.666C111.796 80.1501 110.71 78.9213 109.371 78.9213C108.031 78.9213 106.945 80.1501 106.945 81.666C106.945 83.1818 108.031 84.4107 109.371 84.4107Z" fill="#FF5050"/>
<path d="M119.073 73.4319C120.412 73.4319 121.498 72.2031 121.498 70.6873C121.498 69.1714 120.412 67.9426 119.073 67.9426C117.733 67.9426 116.647 69.1714 116.647 70.6873C116.647 72.2031 117.733 73.4319 119.073 73.4319Z" fill="#FF5050"/>
</svg>
